# File created by Blade
# Date/Time:  Tue Sep 23 19:22:32 2014
# Frame Rate: 120.000 fps
#------------------------------------------------------
:FULLY-SPECIFIED
:DEGREES
2454
root -1.651204 32.097853 5.330708 396.629444 6.810292 0.394421
Spine -42.054627 -5.054546 8.783302
Head -12.354400 -2.467912 -2.032260
LeftShoulder -21.396464 39.416200 24.354925
LeftArm 61.117981 -51.108504 -63.613280
LeftForeArm 67.943902 0.000000 -7.328234
LeftHand 0.271901 -0.000000 61.054708
LeftHandThumb1 -26.253704 0.000000 33.147579
RightShoulder -22.835177 -39.006414 -26.593001
RightArm 38.989944 28.621260 39.418914
RightForeArm 17.100584 0.000000 -3.970173
RightHand 23.302550 -0.000000 -5.273539
RightHandThumb1 -24.326973 -0.000000 -32.862282
LeftUpLeg -28.634939 5.621556 3.134106
LeftLeg -2.729269 -0.000000 0.000000
LeftFoot -5.296255 5.246234 -4.017613
LeftToeBase 2.400418 -0.000000 -0.000000
RightUpLeg -29.076767 -15.936343 0.540198
RightLeg -1.198008 -0.000000 0.000000
RightFoot -7.487713 -2.194498 3.887836
RightToeBase 11.280987 -0.000000 -0.000000
2455
root -1.646244 32.121746 5.315680 396.657924 6.504759 0.326669
Spine -42.024695 -4.733557 8.737634
Head -12.486832 -2.397682 -2.493289
LeftShoulder -21.706814 39.199021 24.067597
LeftArm 60.603901 -51.037243 -63.815506
LeftForeArm 66.719965 -0.000000 -7.493199
LeftHand 1.600371 -0.000000 60.247234
LeftHandThumb1 -26.253704 0.000000 33.147579
RightShoulder -22.694540 -38.824443 -27.133173
RightArm 38.807322 28.483771 39.136760
RightForeArm 16.752300 -0.000000 -4.540927
RightHand 22.446799 -0.000000 -5.022654
RightHandThumb1 -24.326973 -0.000000 -32.862282
LeftUpLeg -28.824691 5.656968 3.084783
LeftLeg -2.384637 -0.000000 0.000000
LeftFoot -5.242965 5.666147 -3.796889
LeftToeBase 2.213225 -0.000000 -0.000000
RightUpLeg -29.022374 -15.616450 0.325905
RightLeg -1.490542 -0.000000 0.000000
RightFoot -7.020676 -1.974633 4.297245
RightToeBase 11.219635 -0.000000 -0.000000
2456
root -1.635815 32.144497 5.308808 396.572366 6.161933 0.376529
Spine -41.866601 -4.474948 8.542048
Head -12.652824 -2.315734 -2.883430
LeftShoulder -21.938793 38.784961 23.850201
LeftArm 60.449753 -51.235051 -64.321848
LeftForeArm 68.069349 -0.000000 -8.361032
LeftHand 1.695524 -0.000000 60.275804
LeftHandThumb1 -26.253704 0.000000 33.147579
RightShoulder -22.614687 -38.573068 -27.594486
RightArm 38.567234 28.217837 38.727914
RightForeArm 16.233237 -0.000000 -5.113726
RightHand 21.611417 -0.000000 -5.413885
RightHandThumb1 -24.326973 -0.000000 -32.862282
LeftUpLeg -28.889660 5.837219 2.823231
LeftLeg -2.015573 -0.000000 0.000000
LeftFoot -5.293633 5.789347 -3.657949
LeftToeBase 2.443913 -0.000000 -0.000000
RightUpLeg -29.024989 -15.513367 0.082804
RightLeg -1.457024 -0.000000 0.000000
RightFoot -6.769089 -1.672265 4.448267
RightToeBase 11.067690 -0.000000 -0.000000
2457
root -1.636709 32.162694 5.302901 396.299849 5.908613 0.405859
Spine -41.487217 -4.413982 8.434494
Head -12.910750 -2.093397 -3.100981
LeftShoulder -22.293259 38.290122 23.589142
LeftArm 60.569280 -51.626051 -65.011561
LeftForeArm 70.856301 -0.000000 -9.671381
LeftHand 0.778222 -0.000000 60.938071
LeftHandThumb1 -26.253704 0.000000 33.147579
RightShoulder -22.406666 -38.148685 -28.055431
RightArm 38.165005 27.854652 38.184522
RightForeArm 15.916813 -0.000000 -5.661168
RightHand 21.136020 -0.000000 -4.771196
RightHandThumb1 -24.326973 -0.000000 -32.862282
LeftUpLeg -28.807362 6.005982 2.634635
LeftLeg -1.618095 -0.000000 0.000000
LeftFoot -5.246714 5.948362 -3.332079
LeftToeBase 2.237461 -0.000000 -0.000000
RightUpLeg -28.785676 -15.250158 -0.231752
RightLeg -1.451906 -0.000000 0.000000
RightFoot -6.571033 -1.629062 4.604874
RightToeBase 11.000487 -0.000000 -0.000000
2458
root -1.646229 32.179738 5.298340 396.007246 5.619369 0.401001
Spine -41.063474 -4.330128 8.297655
Head -13.249125 -1.889673 -3.255197
LeftShoulder -22.534513 37.650427 23.564678
LeftArm 59.743140 -51.620870 -64.865362
LeftForeArm 73.476259 -0.000000 -10.743892
LeftHand -0.874179 0.000000 61.515224
LeftHandThumb1 -26.253704 0.000000 33.147579
RightShoulder -22.249549 -37.705076 -28.409984
RightArm 37.761372 27.601373 37.711555
RightForeArm 15.467620 -0.000000 -6.182432
RightHand 20.662414 0.000000 -4.167238
RightHandThumb1 -24.326973 -0.000000 -32.862282
LeftUpLeg -28.692370 6.364051 2.415199
LeftLeg -1.249834 -0.000000 0.000000
LeftFoot -5.142286 5.888674 -2.954717
LeftToeBase 1.842930 -0.000000 -0.000000
RightUpLeg -28.552640 -14.769828 -0.592541
RightLeg -1.374241 -0.000000 0.000000
RightFoot -6.433694 -1.838463 4.679850
RightToeBase 10.925765 -0.000000 -0.000000
2459
root -1.663060 32.192192 5.291793 395.633961 5.499512 0.374920
Spine -40.556382 -4.389933 8.251487
Head -13.615876 -1.665007 -3.338080
LeftShoulder -22.919278 37.429945 23.273972
LeftArm 59.937364 -52.034737 -65.475658
LeftForeArm 75.858252 0.000000 -12.047188
LeftHand -2.044651 0.000000 62.176936
LeftHandThumb1 -26.253704 0.000000 33.147579
RightShoulder -22.131794 -37.359984 -28.633563
RightArm 37.304537 27.360931 37.114168
RightForeArm 15.425191 -0.000000 -6.638657
RightHand 19.363765 0.000000 -3.087318
RightHandThumb1 -24.326973 -0.000000 -32.862282
LeftUpLeg -28.511938 6.469774 2.413801
LeftLeg -0.876131 -0.000000 0.000000
LeftFoot -5.162010 5.913795 -2.777761
LeftToeBase 1.770638 -0.000000 -0.000000
RightUpLeg -28.274068 -14.382078 -0.834349
RightLeg -1.190853 -0.000000 0.000000
RightFoot -6.405069 -2.150619 4.597065
RightToeBase 10.820823 -0.000000 -0.000000
